<svg width="52" height="52" viewBox="0 0 52 52" fill="none" xmlns="http://www.w3.org/2000/svg">
<rect width="52" height="52" rx="26" fill="#F5F5F5"/>
<g clip-path="url(#clip0_3_6754)">
<path d="M37.4707 20.8784V31.7353C37.4707 32.6131 37.1353 33.4577 36.5332 34.0963C35.931 34.7349 35.1076 35.1193 34.2314 35.1708L34.0295 35.1765H17.9707C17.0929 35.1766 16.2483 34.8412 15.6097 34.239C14.9711 33.6369 14.5867 32.8134 14.5352 31.9372L14.5295 31.7353V20.8784L25.3634 28.1014L25.4965 28.1772C25.6533 28.2538 25.8255 28.2936 26.0001 28.2936C26.1746 28.2936 26.3468 28.2538 26.5036 28.1772L26.6367 28.1014L37.4707 20.8784Z" fill="#192031"/>
<path d="M34.0298 16.8237C35.2687 16.8237 36.3549 17.4776 36.9606 18.4606L26.0004 25.7673L15.0403 18.4606C15.3279 17.9935 15.723 17.6019 16.1927 17.3186C16.6625 17.0352 17.1931 16.8683 17.7405 16.8318L17.971 16.8237H34.0298Z" fill="#192031"/>
</g>
<defs>
<clipPath id="clip0_3_6754">
<rect width="27.5294" height="27.5294" fill="white" transform="translate(12.2354 12.2354)"/>
</clipPath>
</defs>
</svg>
