<svg width="194" height="192" viewBox="0 0 194 192" fill="none" xmlns="http://www.w3.org/2000/svg">
<g clip-path="url(#clip0_1_6579)">
<path d="M101.629 0C101.092 0.159832 104.144 0.294427 104.706 0.3449C132.285 2.5489 157.591 16.4627 174.253 38.6204C193.279 63.9243 198.822 96.3954 189.321 126.696L184.651 126.646C192.943 98.7087 187.745 68.837 170.89 45.4006C155.847 24.4879 132.83 10.7424 107.238 7.46162C58.3358 1.19453 12.9803 34.4311 3.99974 82.9948C-0.469571 107.188 4.71248 132.105 18.4978 152.446C31.5284 171.676 51.2252 185.455 73.8233 190.805C74.2174 190.898 74.3516 191.251 74.5444 191.537C74.687 191.739 74.5361 191.832 74.2426 191.739C32.7274 181.804 2.51556 145.354 0.167704 102.578C0.159319 102.393 0.109008 102.343 0 102.36V92.4669C0 91.6509 0.251556 90.8013 0.318638 89.9012C4.14229 40.8244 42.9742 3.29758 91.5664 0H101.629Z" fill="#F5F5F5"/>
<path d="M49.5482 35.9792C28.996 45.8551 14.3303 65.0433 10.0287 86.8477C5.20721 111.294 12.9887 135.899 30.5808 153.01C38.5719 160.783 48.2736 166.587 58.8054 169.901C59.3588 170.078 59.7949 170.297 59.8116 170.827C40.4418 164.98 24.5099 151.378 15.2527 133.687C-0.10062 104.337 5.8948 68.1979 29.1637 45.3251C52.6507 22.2337 88.598 16.9929 117.762 33.0349C137.584 43.9371 151.713 63.6048 155.571 86.2252C157.893 99.8362 156.409 113.885 151.361 126.68H147.823C158.346 98.9781 150.741 67.9792 129.4 48.1096C107.993 28.1811 76.0957 23.2263 49.5565 35.9876L49.5482 35.9792Z" fill="#F5F5F5"/>
<path d="M96.7484 126.654C108.739 106.877 102.165 81.4047 82.6194 69.8295C63.0735 58.2543 37.6999 64.8916 26.3295 84.677C14.9592 104.463 21.8267 129.909 42.0015 141.19C42.2614 141.333 42.1859 141.409 42.58 141.846C21.2229 130.507 13.5924 103.924 25.2143 83.104C36.8949 62.166 63.3921 54.9231 84.0365 67.0451C104.605 79.125 111.431 106.002 98.6686 126.629L96.7568 126.654H96.7484Z" fill="#F5F5F5"/>
<path d="M118.022 126.713C131.539 99.062 119.33 66.103 92.0276 53.5183C64.4151 40.7907 31.7715 53.4258 19.7471 81.329C7.75631 109.157 20.8875 141.796 49.3301 153.253C49.523 153.329 49.3301 153.556 49.9003 153.926C19.9065 142.242 6.00381 108.004 18.4978 78.8727C31.0336 49.6319 65.3543 36.4668 94.1826 49.9936C123.011 63.5204 135.086 98.1114 120.537 126.78C119.825 126.57 119.061 126.662 118.013 126.713H118.022Z" fill="#F5F5F5"/>
<path d="M87.8685 126.704H28.8535L28.7445 121.859C32.8616 120.807 39.4356 119.394 43.5276 120.429C44.5757 120.732 45.3136 121.405 45.5819 122.582L57.3128 121.363C57.9166 115.844 57.8076 110.477 57.1284 104.967C62.4781 104.16 67.7273 104.017 73.0267 104.563C74.1168 105.396 74.796 106.414 75.6093 107.491C77.932 110.965 79.5923 114.683 80.9423 118.797C82.7535 114.599 84.0281 110.418 85.1685 106.002C87.4828 106.271 89.6713 106.784 91.8012 107.575C92.2204 109.182 92.3462 110.654 92.4217 112.294C92.8326 115.735 91.8096 125.106 87.8685 126.721V126.704ZM68.7586 115.314C69.4798 114.498 69.7816 113.489 69.6307 112.454L64.7337 112.437C64.5996 113.539 64.9685 114.683 65.7903 115.491C66.612 116.298 67.9369 116.248 68.7586 115.314ZM90.904 113.379C90.2415 113.312 89.6881 113.312 89.0676 113.405C88.9754 114.044 89.2101 116.055 90.0403 116.029C90.7111 116.012 91.0633 113.909 90.904 113.379Z" fill="#F5F5F5"/>
<path d="M82.8122 98.8518C88.4974 100.189 88.8328 99.9958 90.904 104.993L83.6256 103.033L81.1771 111.226C80.1541 107.651 78.3094 104.337 75.5171 101.577C69.2282 100.854 62.9393 100.93 56.5833 101.762C55.3423 95.4617 52.4327 87.6215 45.7077 85.754C42.3201 84.7445 39.2008 85.4848 35.5616 86.4606C39.5194 84.08 43.8378 82.3555 48.3574 81.06C52.8771 79.7645 57.12 79.4953 61.6061 80.1683C68.0878 81.1441 73.8988 84.6352 78.737 89.1189C76.6743 87.9159 74.9469 86.2419 72.6829 85.1399C66.1257 81.9517 56.1557 80.673 49.2295 84.08C55.1495 86.6962 58.6042 91.2219 60.8346 97.2787C67.417 96.5216 76.3472 97.3292 82.8122 98.8518Z" fill="#F5F5F5"/>
<path d="M44.9363 101.157L27.1094 105.136L27.4531 97.3965C30.7485 95.1841 36.7272 91.2641 40.4502 90.4565C41.448 90.2378 42.3201 90.6163 42.8735 91.4491C44.3996 93.7961 44.8105 97.9518 44.9363 101.165V101.157Z" fill="#F5F5F5"/>
<path d="M116.127 186.389L115.951 171.491L111.087 183.537C110.794 184.269 109.72 184.059 109.091 184.101C108.396 184.084 107.607 184.143 107.322 183.445L102.484 171.718L102.375 186.339C101.469 186.574 100.539 186.6 99.5491 186.322L99.524 167.622C99.524 167.125 99.6833 166.612 99.9516 166.385C100.312 166.074 100.941 165.998 101.394 166.082C102.727 165.813 103.431 166.427 103.867 167.546L109.226 181.249L114.969 166.797C115.397 165.729 117.929 165.948 118.458 166.343C118.768 166.57 118.936 167.033 118.936 167.58L118.919 186.339C118.013 186.616 117.141 186.549 116.127 186.389Z" fill="#F5F5F5"/>
<path d="M190.369 181.502C188.801 186.128 184.273 187.483 179.896 186.549C173.272 185.136 172.861 176.395 174.454 171.592C175.745 167.706 179.158 165.527 183.141 165.762C186.646 165.973 189.472 168.017 190.503 171.474C191.468 174.713 191.459 178.271 190.369 181.493V181.502ZM187.61 180.156C188.365 177.481 188.306 174.637 187.569 172.063C186.94 169.859 185.145 168.589 182.94 168.48C180.399 168.353 178.303 169.725 177.422 172.198C176.458 174.906 176.508 178.019 177.389 180.787C178.035 182.831 179.754 183.899 181.766 184.084C184.458 184.337 186.831 182.94 187.61 180.147V180.156Z" fill="#F5F5F5"/>
<path d="M126.365 176.959C126.197 178.7 126.306 180.273 126.298 181.914C126.298 183.032 127.12 183.739 128.193 183.748L136.905 183.798C137.098 184.732 137.098 185.531 136.888 186.481L127.455 186.439C125.074 186.431 123.33 184.521 123.33 182.141V170.549C123.346 168 125.359 166.09 127.841 166.09H136.729C137.023 166.965 137.006 167.823 136.779 168.749L128.017 168.799C125.518 168.816 126.432 172.248 126.357 174.326L135.714 174.385C136.067 175.176 136.058 176.118 135.714 176.917L126.373 176.959H126.365Z" fill="#F5F5F5"/>
<path d="M159.461 178.482L159.403 186.355C158.447 186.574 157.508 186.574 156.485 186.347V167.302C156.476 166.646 156.996 166.048 157.642 166.048C160.3 166.04 162.908 165.939 165.541 166.082C169.28 166.284 171.637 169.514 171.134 173.115C170.714 176.118 168.517 178.431 165.398 178.448L159.453 178.49L159.461 178.482ZM168.098 172.517C168.174 170.448 166.765 168.967 164.786 168.85C163.008 168.74 161.273 168.799 159.487 168.841V175.79C161.331 175.848 163.134 175.874 164.97 175.773C166.807 175.672 168.031 174.427 168.098 172.517Z" fill="#F5F5F5"/>
<path d="M147.705 186.305C146.749 186.65 145.802 186.507 144.67 186.406L144.62 168.816L138.733 168.732C138.549 167.857 138.557 167.049 138.716 166.133L153.743 166.116C153.952 167.024 153.944 167.874 153.743 168.732L147.714 168.791L147.697 186.322L147.705 186.305Z" fill="#F5F5F5"/>
<path d="M99.2556 157.678H93.8639C93.3608 158.654 93.3357 159.706 92.7739 160.53C92.5223 160.909 91.6586 160.732 91.2561 160.564L95.7087 148.072C95.8596 147.643 97.327 147.651 97.478 148.072L101.88 160.538C101.52 160.749 100.614 160.883 100.379 160.555C99.8007 159.748 99.7923 158.721 99.264 157.67L99.2556 157.678ZM98.828 156.248L96.5556 149.417L94.2664 156.316C95.9015 156.349 97.3019 156.475 98.828 156.248Z" fill="#F5F5F5"/>
<path d="M138.599 159.235C138.599 159.672 139.337 159.596 139.513 159.84C139.597 160.993 139.446 162.305 139.345 163.466C139.152 163.685 138.524 163.643 138.264 163.466C138.012 162.658 138.222 161.666 138.054 160.715L131.404 160.69C130.968 160.69 130.675 160.328 130.675 159.866V151.26C130.927 150.949 131.74 150.923 131.991 151.243L132.025 159.538L137.165 159.554L137.199 151.151C137.635 150.974 138.079 151.024 138.532 151.167L138.591 159.235H138.599Z" fill="#F5F5F5"/>
<path d="M179.997 160.454C179.661 160.875 178.974 160.808 178.655 160.547L178.521 153.127L173.775 160.227C173.364 160.841 172.509 160.934 171.997 160.353V151.243C172.131 150.948 173.247 150.89 173.255 151.226L173.448 158.629L178.378 151.285C178.613 150.94 179.871 150.915 179.879 151.403L179.997 160.463V160.454Z" fill="#F5F5F5"/>
<path d="M149.265 160.564C148.896 160.833 148.368 160.724 147.957 160.648L147.865 153.127L143.127 160.152C142.909 160.471 142.666 160.698 142.364 160.707C142.096 160.707 141.349 160.757 141.349 160.311L141.299 151.218C141.651 150.965 142.213 150.957 142.599 151.159L142.733 158.629L147.638 151.344C147.957 150.873 148.795 150.999 149.248 151.327L149.265 160.572V160.564Z" fill="#F5F5F5"/>
<path d="M169.272 159.235C169.272 159.681 169.943 159.571 170.186 159.782C170.27 160.976 170.186 162.154 170.043 163.365C170.01 163.634 168.995 163.71 168.97 163.441L168.702 160.715L162.203 160.698C161.725 160.698 161.382 160.412 161.382 159.874L161.432 151.243C161.457 150.924 162.665 150.924 162.673 151.243L162.757 159.538H167.88L167.939 151.21C168.14 150.924 168.819 151.016 169.213 151.1L169.28 159.226L169.272 159.235Z" fill="#F5F5F5"/>
<path d="M151.294 158.208C151.16 156.316 152.292 154.827 154.003 154.751L157.441 154.591C157.86 154.364 157.591 153.271 157.34 152.841C156.501 151.42 153.659 152.32 152.586 152.404C152.342 152.421 152.124 151.554 152.359 151.453C153.81 150.823 155.436 150.696 156.979 151.041C158.204 151.31 158.983 152.387 158.983 153.641L158.958 160.236C156.812 161.119 151.563 161.784 151.303 158.208H151.294ZM157.533 159.268C157.776 158.032 157.533 156.938 157.591 155.87C155.94 155.836 152.988 155.39 152.678 157.392C152.535 158.293 152.745 159.226 153.751 159.546C154.833 159.891 156.669 159.95 157.533 159.268Z" fill="#F5F5F5"/>
<path d="M188.415 156.669C186.478 156.744 184.5 156.088 183.854 157.855C183.519 158.772 183.393 159.714 182.965 160.572C182.781 160.85 182.076 160.723 181.665 160.648C182.076 159.369 182.428 156.812 183.628 156.24C182.328 155.609 181.984 154.347 182.278 153.035C182.521 151.958 183.644 151.075 184.944 151.066L188.986 151.049C189.212 151.049 189.413 151.091 189.547 151.167C189.69 151.251 189.816 151.537 189.816 151.815V160.597C189.304 160.749 188.885 160.774 188.499 160.597L188.424 156.66L188.415 156.669ZM188.449 155.499C188.483 154.33 188.524 153.346 188.415 152.235H185.145C184.089 152.235 183.477 153.077 183.502 153.943C183.535 154.961 184.282 155.541 185.346 155.533L188.449 155.499Z" fill="#F5F5F5"/>
<path d="M124.47 160.917C122.642 160.925 121.2 160.084 120.638 158.444C120.126 156.955 120.11 155.323 120.529 153.817C121.082 151.857 122.768 150.747 124.78 150.848C126.44 150.932 127.79 151.849 128.31 153.472C128.797 155.003 128.805 156.703 128.31 158.234C127.774 159.924 126.34 160.892 124.47 160.909V160.917ZM126.835 153.405C126.34 152.303 125.25 151.908 124.084 152.025C121.359 152.311 121.116 156.433 122.122 158.486C122.667 159.596 123.841 159.916 125.049 159.714C127.581 159.293 127.673 155.23 126.835 153.397V153.405Z" fill="#F5F5F5"/>
<path d="M105.989 159.512C107.23 160.025 108.563 159.622 109.67 159.159C109.972 159.26 110.274 159.882 110.148 160.185C108.899 160.917 107.213 161.085 105.779 160.749C102.702 160.034 102.534 155.979 103.297 153.657C103.867 151.908 105.419 150.814 107.272 150.864C108.236 150.89 109.326 150.982 109.964 151.638C110.098 151.866 109.787 152.37 109.62 152.496C109.293 152.74 106.718 151.083 105.184 152.976C103.884 154.574 103.758 158.587 105.989 159.512Z" fill="#F5F5F5"/>
<path d="M115.439 159.723C117.745 160.034 118.684 158.124 118.785 160.185C116.705 161.371 112.898 161.38 111.959 158.486C111.121 155.895 111.523 151.958 114.517 151.083C115.883 150.688 117.393 150.814 118.592 151.554C118.793 151.739 118.491 152.253 118.366 152.412C117.997 152.892 115.171 150.915 113.653 153.228C112.613 154.818 112.244 159.294 115.439 159.731V159.723Z" fill="#F5F5F5"/>
<path d="M63.5431 133.813L59.9207 142.116C59.7446 142.52 58.3862 142.536 58.2017 142.116L54.5541 133.754L54.4116 143.697C54.3948 144.009 53.2209 144.009 53.1622 143.697L53.137 131.416C53.4305 130.843 54.747 130.7 55.0069 131.323L59.0654 140.997L63.1406 131.323C63.4005 130.709 64.7338 130.869 65.0189 131.399L65.0524 143.748C64.5996 143.933 64.0965 143.933 63.7024 143.723L63.5598 133.805L63.5431 133.813Z" fill="#F5F5F5"/>
<path d="M99.0544 143.908H91.8431C91.6754 144.85 91.8012 145.641 91.5999 146.524C91.5328 146.827 90.6021 146.827 90.5518 146.473C90.3925 145.279 90.3505 144.194 90.3841 142.949C91.34 142.873 91.8599 142.234 92.0611 141.342C92.5391 139.281 92.7487 137.22 93.0925 135.1C93.168 134.629 93.4028 134.225 93.9478 134.225H98.8699C99.3898 134.217 99.5491 134.604 99.5491 135.058V142.553C99.7503 142.831 100.262 142.806 100.513 143.033C100.497 144.194 100.48 145.38 100.287 146.532C100.237 146.801 99.3479 146.81 99.2556 146.558C98.9873 145.767 99.2305 145.018 99.046 143.908H99.0544ZM98.2075 142.722V135.445L94.3335 135.462L93.604 140.181C93.4614 141.081 93.2434 141.847 92.8913 142.747L98.1991 142.73L98.2075 142.722Z" fill="#F5F5F5"/>
<path d="M159 143.908L151.839 143.866L151.495 146.583C151.386 146.818 150.758 146.692 150.489 146.6C150.372 145.388 150.271 144.261 150.305 142.966C151.286 142.865 151.797 142.234 152.007 141.325C152.485 139.264 152.686 137.203 153.038 135.1C153.114 134.638 153.349 134.225 153.868 134.225L158.707 134.208C159.243 134.208 159.47 134.579 159.47 135.075L159.487 142.553C159.705 142.831 160.208 142.831 160.459 143.067L160.25 146.633C159.864 146.759 159.503 146.726 159.126 146.625L159 143.916V143.908ZM158.145 142.705L158.086 135.428L154.288 135.454L153.525 140.299C153.382 141.191 153.156 141.939 152.82 142.738L158.145 142.705Z" fill="#F5F5F5"/>
<path d="M89.7133 143.689C87.3822 145.153 88.489 139.853 86.2586 139.357C85.5039 139.189 84.7241 139.197 83.9107 139.332L83.7933 143.689C83.6843 143.984 82.7368 143.992 82.5691 143.697L82.502 139.34C81.001 139.146 79.433 139.003 78.9131 140.585C78.5526 141.662 78.3932 142.747 77.9069 143.756C77.6721 143.975 76.9678 143.908 76.6407 143.798C77.1438 142.251 77.5296 139.13 78.9299 138.667C77.8985 137.834 77.5379 135.706 77.1942 134.301C79.4665 133.233 78.2926 137.725 80.3889 138.078C81.0849 138.196 81.7976 138.213 82.5104 138.078C82.6278 136.833 82.4098 135.655 82.6026 134.419C82.6529 134.099 83.6591 134.074 83.8268 134.352L83.9275 138.078C84.6821 138.221 85.3865 138.204 86.0909 138.078C88.053 137.708 87.0132 133.241 89.2101 134.309C88.9502 135.546 88.9083 136.825 88.2123 137.775L87.5247 138.709C88.9167 139.281 89.1682 141.973 89.73 143.697L89.7133 143.689Z" fill="#F5F5F5"/>
<path d="M138.876 141.367C137.878 144.211 135.178 144.37 132.604 143.782L132.469 147.424C132.327 147.685 131.22 147.702 131.22 147.39L131.203 134.747C133.836 133.653 137.861 133.334 138.901 136.614C139.387 138.154 139.421 139.845 138.884 141.367H138.876ZM137.551 136.968C136.855 134.806 134.272 134.949 132.528 135.597V142.469C133.492 142.873 134.499 142.991 135.53 142.823C138.037 142.41 138.171 138.886 137.551 136.968Z" fill="#F5F5F5"/>
<path d="M172.266 141.451C172.073 139.483 173.272 137.969 175.049 137.868L178.37 137.683C178.814 137.657 178.538 136.412 178.328 136.034C177.515 134.562 174.63 135.462 173.523 135.554C173.28 135.571 173.096 134.696 173.33 134.587C174.689 133.973 176.198 133.897 177.674 134.124C179.15 134.351 179.963 135.546 179.955 136.968L179.93 143.352C177.884 144.278 172.609 144.934 172.266 141.451ZM178.58 142.536L178.529 138.995C176.827 139.02 173.917 138.524 173.624 140.627C173.498 141.561 173.842 142.494 174.857 142.772C176.072 143.1 177.355 142.949 178.58 142.536Z" fill="#F5F5F5"/>
<path d="M188.399 139.862C186.428 139.845 184.466 139.239 183.812 141.056C183.493 141.922 183.376 142.814 182.973 143.672C182.823 144 181.967 143.908 181.674 143.765C182.051 142.419 182.428 139.979 183.628 139.399C182.278 138.734 181.992 137.531 182.252 136.244C182.789 133.611 186.562 134.192 189.111 134.2C189.472 134.2 189.791 134.452 189.791 134.856L189.765 143.697C189.472 143.975 188.877 143.857 188.499 143.756L188.399 139.845V139.862ZM188.432 138.684L188.399 135.411C187.141 135.395 185.967 135.294 184.776 135.454C183.795 135.588 183.384 136.505 183.51 137.363C183.795 139.315 186.613 138.566 188.432 138.675V138.684Z" fill="#F5F5F5"/>
<path d="M121.107 141.51C120.873 139.458 122.198 138.095 124.101 137.834C125.107 137.699 126.172 137.96 127.245 137.666C127.665 137.523 127.371 136.421 127.178 136.051C126.424 134.587 123.548 135.411 122.39 135.563C122.147 135.596 121.912 134.721 122.139 134.612C123.539 133.939 125.191 133.872 126.734 134.175C127.925 134.41 128.763 135.453 128.763 136.665V143.352C126.717 144.244 121.493 144.909 121.099 141.493L121.107 141.51ZM127.422 142.52L127.363 138.978C125.669 139.054 122.726 138.473 122.441 140.669C122.332 141.493 122.634 142.419 123.564 142.713C124.814 143.117 126.164 142.932 127.413 142.511L127.422 142.52Z" fill="#F5F5F5"/>
<path d="M69.7649 142.318C71.0562 143.235 72.5404 142.839 73.8736 142.393C74.209 142.284 74.6031 143.218 74.318 143.386C72.314 144.589 68.331 144.412 67.5009 141.283C67.1151 139.811 67.1151 138.246 67.5596 136.824C68.1465 134.932 69.7397 133.948 71.6432 133.99C73.8988 134.032 75.383 135.622 75.4081 137.918C75.4081 138.616 75.2656 139.365 74.3851 139.382L68.6329 139.449C68.5826 140.543 68.8676 141.678 69.7649 142.318ZM74.0916 138.271C74.0916 137.237 73.9407 136.522 73.3789 135.916C72.5823 135.05 71.1903 134.923 70.0667 135.529C69.2282 135.975 68.6161 137.178 68.7083 138.288L74.0916 138.271Z" fill="#F5F5F5"/>
<path d="M105.939 145.775C104.966 148.652 101.855 147.55 101.788 147.348C101.712 147.113 101.813 146.818 101.863 146.642C102.04 145.969 103.985 147.382 104.681 145.573C104.89 145.026 105.092 144.505 105.268 143.941C105.075 143.748 104.631 143.748 104.471 143.504L101.444 134.309C101.78 134.183 102.61 134.032 102.752 134.335L105.553 142.822L108.546 134.326C108.739 134.065 109.536 134.158 109.821 134.309L105.939 145.775Z" fill="#F5F5F5"/>
<path d="M145.198 144.068C143.194 144.118 141.66 143.092 141.173 141.233C140.804 139.845 140.779 138.347 141.173 136.968C141.743 134.974 143.479 133.88 145.508 134.015C147.135 134.124 148.435 135.016 148.963 136.614C149.491 138.213 149.458 139.853 148.971 141.393C148.443 143.083 147.035 144.026 145.198 144.076V144.068ZM147.42 136.413C146.858 135.285 145.643 135.024 144.435 135.252C142.054 135.697 141.844 139.542 142.699 141.493C143.177 142.587 144.267 143.016 145.349 142.932C148.317 142.705 148.385 138.364 147.42 136.413Z" fill="#F5F5F5"/>
<path d="M119.036 143.647C118.835 143.983 117.938 143.983 117.787 143.689L117.661 139.289H112.672L112.555 143.672C112.395 143.958 111.557 143.975 111.28 143.672V134.444C111.288 134.074 112.471 134.074 112.538 134.393C112.781 135.512 112.496 136.841 112.672 138.078H117.686L117.745 134.436C117.745 134.074 118.869 134.082 118.978 134.402L119.036 143.647Z" fill="#F5F5F5"/>
<path d="M170.186 143.647C169.943 143.975 169.088 143.975 168.945 143.689L168.819 139.306H163.813L163.679 143.689C163.62 143.992 162.614 143.983 162.446 143.689C162.363 140.669 162.363 137.548 162.438 134.435C162.438 134.099 163.553 134.133 163.713 134.385L163.822 138.086H168.802L168.92 134.419C168.928 134.09 169.901 134.133 170.152 134.41L170.178 143.655L170.186 143.647Z" fill="#F5F5F5"/>
</g>
<defs>
<clipPath id="clip0_1_6579">
<rect width="194" height="192" fill="white"/>
</clipPath>
</defs>
</svg>
