<svg width="45" height="45" viewBox="0 0 45 45" fill="none" xmlns="http://www.w3.org/2000/svg">
<g clip-path="url(#clip0_6_272)">
<path d="M23.5737 0C23.4492 0.0374606 24.1572 0.0690063 24.2875 0.080836C30.6846 0.597397 36.5547 3.85844 40.4195 9.05166C44.8327 14.9823 46.1184 22.5927 43.9147 29.6944L42.8313 29.6826C44.7549 23.1349 43.549 16.1337 39.6395 10.6408C36.1502 5.73935 30.8111 2.51774 24.8749 1.74882C13.5315 0.279968 3.01089 8.0698 0.927775 19.4519C-0.108921 25.1222 1.0931 30.9621 4.29072 35.7295C7.31328 40.2366 11.8821 43.4661 17.124 44.72C17.2154 44.7417 17.2465 44.8245 17.2912 44.8916C17.3243 44.9389 17.2893 44.9606 17.2212 44.9389C7.59142 42.6104 0.583506 34.0674 0.0389004 24.0418C0.0369554 23.9984 0.0252853 23.9866 0 23.9905V21.6719C0 21.4807 0.0583506 21.2815 0.0739108 21.0706C0.96084 9.56822 9.96823 0.772871 21.2396 0H23.5737Z" fill="#F5F5F5"/>
<path d="M11.4932 8.43257C6.72597 10.7472 3.32413 15.2445 2.32633 20.3549C1.20794 26.0844 3.01292 31.8513 7.09358 35.8616C8.94718 37.6834 11.1976 39.0438 13.6405 39.8206C13.7689 39.862 13.87 39.9132 13.8739 40.0375C9.38092 38.6672 5.68538 35.4791 3.53808 31.3328C-0.0232548 24.4539 1.36743 15.9838 6.76487 10.623C12.2129 5.21096 20.5512 3.98265 27.316 7.74251C31.914 10.2977 35.1913 14.9073 36.0861 20.209C36.6248 23.3991 36.2806 26.6916 35.1097 29.6905H34.2889C36.7299 23.1979 34.9657 15.9326 30.0156 11.2756C25.05 6.60489 17.6512 5.44361 11.4952 8.43454L11.4932 8.43257Z" fill="#F5F5F5"/>
<path d="M22.4416 29.6845C25.2229 25.0493 23.698 19.0793 19.1642 16.3663C14.6304 13.6534 8.74473 15.209 6.10728 19.8462C3.46983 24.4834 5.06281 30.4476 9.74253 33.0915C9.80282 33.125 9.78532 33.1427 9.87673 33.2453C4.92276 30.5875 3.1528 24.3573 5.84859 19.4775C8.55801 14.5702 14.7043 12.8726 19.4929 15.7137C24.2641 18.545 25.8473 24.8442 22.887 29.6786L22.4435 29.6845H22.4416Z" fill="#F5F5F5"/>
<path d="M27.3764 29.6983C30.5117 23.2177 27.6798 15.4929 21.3468 12.5434C14.9418 9.56033 7.36988 12.5217 4.58072 19.0615C1.79935 25.5836 4.84525 33.2334 11.4428 35.9188C11.4875 35.9365 11.4428 35.9898 11.575 36.0765C4.61768 33.3379 1.39284 25.3135 4.29092 18.4858C7.19872 11.6325 15.1597 8.54693 21.8467 11.7173C28.5337 14.8876 31.3345 22.9949 27.9599 29.7141C27.7945 29.6648 27.6175 29.6865 27.3744 29.6983H27.3764Z" fill="#F5F5F5"/>
<path d="M20.3818 29.6964H6.69277L6.66748 28.5607C7.62249 28.3143 9.14738 27.983 10.0966 28.2256C10.3397 28.2965 10.5108 28.4543 10.5731 28.7303L13.2942 28.4444C13.4342 27.151 13.4089 25.8931 13.2514 24.6017C14.4923 24.4125 15.7099 24.3789 16.9391 24.5071C17.192 24.7023 17.3495 24.9408 17.5382 25.1932C18.077 26.0075 18.4621 26.8789 18.7752 27.8431C19.1954 26.8592 19.491 25.8793 19.7555 24.8442C20.2924 24.9073 20.8 25.0276 21.294 25.2129C21.3913 25.5895 21.4205 25.9345 21.438 26.319C21.5333 27.1254 21.296 29.3218 20.3818 29.7003V29.6964ZM15.9491 27.0268C16.1164 26.8356 16.1864 26.599 16.1514 26.3565L15.0155 26.3525C14.9844 26.6108 15.07 26.8789 15.2606 27.0682C15.4512 27.2575 15.7585 27.2457 15.9491 27.0268ZM21.0859 26.5733C20.9323 26.5576 20.8039 26.5576 20.66 26.5793C20.6386 26.7291 20.693 27.2003 20.8856 27.1944C21.0412 27.1905 21.1229 26.6976 21.0859 26.5733Z" fill="#F5F5F5"/>
<path d="M19.2087 23.1684C20.5275 23.4819 20.6053 23.4365 21.0857 24.6076L19.3974 24.1483L18.8294 26.0686C18.5922 25.2307 18.1643 24.4539 17.5166 23.8072C16.0578 23.6376 14.599 23.6554 13.1247 23.8506C12.8368 22.3738 12.1619 20.5363 10.602 20.0986C9.81622 19.862 9.09267 20.0355 8.24854 20.2642C9.16658 19.7062 10.1683 19.302 11.2166 18.9984C12.265 18.6948 13.2492 18.6317 14.2898 18.7894C15.7933 19.0181 17.1412 19.8364 18.2634 20.8872C17.785 20.6053 17.3843 20.2129 16.8591 19.9547C15.3381 19.2074 13.0255 18.9077 11.4189 19.7062C12.7921 20.3194 13.5935 21.3801 14.1108 22.7997C15.6377 22.6222 17.7091 22.8115 19.2087 23.1684Z" fill="#F5F5F5"/>
<path d="M10.4232 23.7086L6.28809 24.6412L6.36783 22.8273C7.13222 22.3088 8.51902 21.39 9.38261 21.2007C9.61407 21.1494 9.81635 21.2382 9.94472 21.4334C10.2987 21.9834 10.394 22.9574 10.4232 23.7106V23.7086Z" fill="#F5F5F5"/>
<path d="M26.9366 43.6849L26.8957 40.1932L25.7676 43.0166C25.6996 43.1881 25.4506 43.1388 25.3047 43.1487C25.1433 43.1447 24.9604 43.1585 24.8943 42.9949L23.772 40.2465L23.7468 43.6731C23.5367 43.7283 23.3208 43.7342 23.0913 43.6692L23.0854 39.2863C23.0854 39.17 23.1224 39.0497 23.1846 38.9965C23.2683 38.9235 23.4142 38.9058 23.5192 38.9255C23.8284 38.8624 23.9918 39.0063 24.093 39.2685L25.3358 42.4803L26.6682 39.0931C26.7674 38.8427 27.3548 38.8939 27.4773 38.9866C27.5493 39.0398 27.5882 39.1483 27.5882 39.2764L27.5843 43.6731C27.3742 43.7382 27.1719 43.7224 26.9366 43.6849Z" fill="#F5F5F5"/>
<path d="M44.158 42.5394C43.7943 43.6238 42.744 43.9412 41.7287 43.7224C40.1921 43.3912 40.0968 41.3427 40.4664 40.2169C40.7659 39.306 41.5575 38.7954 42.4814 38.8506C43.2944 38.8998 43.9499 39.3789 44.1891 40.1893C44.4128 40.9483 44.4109 41.7823 44.158 42.5375V42.5394ZM43.5181 42.224C43.6932 41.597 43.6795 40.9306 43.5084 40.3273C43.3625 39.8107 42.9463 39.513 42.4347 39.4874C41.8454 39.4578 41.3591 39.7792 41.1549 40.3588C40.9312 40.9937 40.9429 41.7232 41.1471 42.3718C41.2969 42.8509 41.6956 43.1013 42.1624 43.1447C42.7868 43.2039 43.3372 42.8766 43.5181 42.222V42.224Z" fill="#F5F5F5"/>
<path d="M29.3115 41.4748C29.2726 41.8829 29.2979 42.2516 29.296 42.636C29.296 42.8983 29.4866 43.0639 29.7355 43.0658L31.7564 43.0777C31.8011 43.2965 31.8011 43.4838 31.7525 43.7066L29.5644 43.6968C29.012 43.6948 28.6074 43.2472 28.6074 42.6893V39.9724C28.6113 39.375 29.0781 38.9274 29.6538 38.9274H31.7156C31.7836 39.1325 31.7797 39.3336 31.7272 39.5505L29.6947 39.5623C29.1151 39.5662 29.3271 40.3707 29.3096 40.8576L31.4802 40.8715C31.5619 41.0568 31.56 41.2776 31.4802 41.4649L29.3135 41.4748H29.3115Z" fill="#F5F5F5"/>
<path d="M36.9884 41.8316L36.9747 43.6771C36.753 43.7283 36.5352 43.7283 36.2979 43.6751V39.2114C36.2959 39.0576 36.4165 38.9176 36.5663 38.9176C37.1829 38.9156 37.7878 38.892 38.3985 38.9255C39.266 38.9728 39.8125 39.7299 39.6958 40.5737C39.5986 41.2776 39.089 41.8198 38.3654 41.8237L36.9864 41.8336L36.9884 41.8316ZM38.9917 40.4338C39.0092 39.9487 38.6825 39.6017 38.2234 39.5741C37.8111 39.5485 37.4085 39.5623 36.9942 39.5722V41.2007C37.4221 41.2145 37.8403 41.2204 38.2662 41.1968C38.6922 41.1731 38.9762 40.8813 38.9917 40.4338Z" fill="#F5F5F5"/>
<path d="M34.2615 43.6652C34.0397 43.7461 33.8199 43.7125 33.5574 43.6889L33.5457 39.5662L32.1803 39.5465C32.1375 39.3415 32.1394 39.1522 32.1764 38.9373L35.6619 38.9334C35.7105 39.1463 35.7086 39.3454 35.6619 39.5465L34.2634 39.5603L34.2595 43.6692L34.2615 43.6652Z" fill="#F5F5F5"/>
<path d="M23.0235 36.9558H21.7729C21.6562 37.1845 21.6503 37.431 21.52 37.6242C21.4617 37.7129 21.2613 37.6715 21.168 37.6321L22.2008 34.7043C22.2358 34.6037 22.5762 34.6057 22.6112 34.7043L23.6323 37.6262C23.5487 37.6755 23.3386 37.707 23.2842 37.6301C23.1499 37.4409 23.148 37.2003 23.0255 36.9539L23.0235 36.9558ZM22.9243 36.6207L22.3972 35.0197L21.8662 36.6364C22.2455 36.6443 22.5703 36.6739 22.9243 36.6207Z" fill="#F5F5F5"/>
<path d="M32.1496 37.3206C32.1496 37.4231 32.3207 37.4054 32.3616 37.4625C32.381 37.7326 32.346 38.0402 32.3227 38.3123C32.2779 38.3636 32.1321 38.3537 32.0718 38.3123C32.0134 38.123 32.062 37.8904 32.0231 37.6676L30.4807 37.6617C30.3796 37.6617 30.3115 37.5769 30.3115 37.4685V35.4515C30.3699 35.3785 30.5585 35.3726 30.6169 35.4476L30.6247 37.3916L31.817 37.3955L31.8247 35.4259C31.9259 35.3845 32.029 35.3963 32.134 35.4298L32.1476 37.3206H32.1496Z" fill="#F5F5F5"/>
<path d="M41.752 37.6065C41.6742 37.705 41.5147 37.6893 41.4408 37.6282L41.4097 35.8892L40.3088 37.5532C40.2135 37.6972 40.0151 37.7188 39.8965 37.5828V35.4476C39.9276 35.3785 40.1863 35.3647 40.1882 35.4436L40.233 37.1786L41.3766 35.4574C41.4311 35.3766 41.7229 35.3707 41.7248 35.485L41.752 37.6084V37.6065Z" fill="#F5F5F5"/>
<path d="M34.6236 37.6321C34.5381 37.6952 34.4155 37.6696 34.3202 37.6518L34.2988 35.8892L33.1999 37.5355C33.1493 37.6104 33.0929 37.6636 33.0229 37.6656C32.9607 37.6656 32.7876 37.6775 32.7876 37.573L32.7759 35.4416C32.8576 35.3825 32.9879 35.3805 33.0774 35.4278L33.1085 37.1786L34.2463 35.4712C34.3202 35.3608 34.5147 35.3904 34.6198 35.4673L34.6236 37.6341V37.6321Z" fill="#F5F5F5"/>
<path d="M39.2643 37.3206C39.2643 37.4251 39.4199 37.3995 39.4764 37.4487C39.4958 37.7287 39.4764 38.0047 39.4433 38.2886C39.4355 38.3517 39.2002 38.3695 39.1943 38.3064L39.1321 37.6676L37.6247 37.6636C37.5138 37.6636 37.4341 37.5966 37.4341 37.4704L37.4458 35.4476C37.4516 35.3726 37.7317 35.3726 37.7336 35.4476L37.7531 37.3916H38.9415L38.9551 35.4397C39.0018 35.3726 39.1593 35.3943 39.2507 35.414L39.2663 37.3186L39.2643 37.3206Z" fill="#F5F5F5"/>
<path d="M35.0943 37.0801C35.0632 36.6364 35.3258 36.2875 35.7225 36.2697L36.52 36.2323C36.6172 36.179 36.555 35.9227 36.4967 35.8222C36.3022 35.489 35.6428 35.6999 35.3938 35.7196C35.3374 35.7236 35.2869 35.5205 35.3413 35.4968C35.6778 35.349 36.0551 35.3194 36.413 35.4002C36.697 35.4633 36.8779 35.7157 36.8779 36.0095L36.872 37.5552C36.3741 37.7622 35.1565 37.918 35.0962 37.0801H35.0943ZM36.5414 37.3285C36.5978 37.0386 36.5414 36.7823 36.555 36.5319C36.1718 36.5241 35.4872 36.4196 35.4152 36.8888C35.3822 37.0998 35.4308 37.3186 35.6642 37.3935C35.9151 37.4744 36.3411 37.4882 36.5414 37.3285Z" fill="#F5F5F5"/>
<path d="M43.7049 36.7192C43.2556 36.737 42.7966 36.5832 42.6468 36.9972C42.569 37.2121 42.5398 37.433 42.4406 37.6341C42.3978 37.6991 42.2345 37.6696 42.1392 37.6518C42.2345 37.3521 42.3162 36.7528 42.5943 36.6187C42.2928 36.4708 42.2131 36.1751 42.2811 35.8675C42.3376 35.6151 42.5982 35.4081 42.8997 35.4062L43.8372 35.4022C43.8897 35.4022 43.9364 35.4121 43.9675 35.4298C44.0005 35.4495 44.0297 35.5166 44.0297 35.5816V37.64C43.9111 37.6755 43.8138 37.6814 43.7244 37.64L43.7068 36.7173L43.7049 36.7192ZM43.7127 36.4452C43.7205 36.1711 43.7302 35.9405 43.7049 35.6802H42.9463C42.7013 35.6802 42.5593 35.8774 42.5651 36.0804C42.5729 36.319 42.746 36.455 42.993 36.4531L43.7127 36.4452Z" fill="#F5F5F5"/>
<path d="M28.872 37.7149C28.448 37.7169 28.1134 37.5197 27.9831 37.1353C27.8645 36.7863 27.8606 36.4038 27.9579 36.0509C28.0862 35.5915 28.4772 35.3312 28.944 35.3549C29.3291 35.3746 29.6422 35.5895 29.7628 35.97C29.8756 36.3289 29.8776 36.7271 29.7628 37.086C29.6383 37.4823 29.3057 37.709 28.872 37.7129V37.7149ZM29.4205 35.9543C29.3057 35.696 29.0529 35.6033 28.7825 35.6309C28.1504 35.698 28.094 36.664 28.3274 37.1451C28.4538 37.4054 28.7261 37.4803 29.0062 37.433C29.5936 37.3344 29.615 36.3821 29.4205 35.9523V35.9543Z" fill="#F5F5F5"/>
<path d="M24.5856 37.3856C24.8735 37.5059 25.1827 37.4113 25.4395 37.3028C25.5095 37.3265 25.5795 37.4724 25.5503 37.5434C25.2605 37.7149 24.8696 37.7543 24.537 37.6755C23.8232 37.5079 23.7843 36.5576 23.9612 36.0134C24.0935 35.6033 24.4533 35.347 24.8832 35.3588C25.1069 35.3647 25.3597 35.3864 25.5075 35.5402C25.5387 35.5935 25.4667 35.7117 25.4278 35.7413C25.3519 35.7985 24.7548 35.4101 24.3989 35.8537C24.0974 36.2283 24.0682 37.1688 24.5856 37.3856Z" fill="#F5F5F5"/>
<path d="M26.7775 37.4349C27.3124 37.5079 27.5302 37.0603 27.5535 37.5434C27.0712 37.8214 26.1881 37.8233 25.9703 37.1451C25.7758 36.5379 25.8692 35.6151 26.5635 35.4101C26.8806 35.3174 27.2307 35.347 27.5088 35.5205C27.5555 35.5639 27.4855 35.6841 27.4563 35.7216C27.3707 35.834 26.7152 35.3707 26.3632 35.9129C26.122 36.2855 26.0364 37.3344 26.7775 37.4369V37.4349Z" fill="#F5F5F5"/>
<path d="M14.7395 31.3624L13.8992 33.3084C13.8584 33.403 13.5433 33.4069 13.5005 33.3084L12.6544 31.3486L12.6213 33.679C12.6174 33.752 12.3451 33.752 12.3315 33.679L12.3257 30.8005C12.3938 30.6664 12.6991 30.6329 12.7594 30.7788L13.7008 33.0461L14.6461 30.7788C14.7064 30.6349 15.0156 30.6723 15.0818 30.7965L15.0896 33.6909C14.9845 33.7342 14.8678 33.7342 14.7764 33.6849L14.7433 31.3604L14.7395 31.3624Z" fill="#F5F5F5"/>
<path d="M22.9765 33.7283H21.3038C21.2649 33.9491 21.2941 34.1345 21.2474 34.3415C21.2319 34.4125 21.016 34.4125 21.0043 34.3297C20.9673 34.0497 20.9576 33.7953 20.9654 33.5036C21.1871 33.4858 21.3077 33.336 21.3544 33.127C21.4653 32.6439 21.5139 32.1609 21.5936 31.664C21.6111 31.5536 21.6656 31.459 21.792 31.459H22.9337C23.0543 31.457 23.0913 31.5477 23.0913 31.6542V33.4109C23.138 33.476 23.2566 33.47 23.315 33.5233C23.3111 33.7953 23.3072 34.0733 23.2625 34.3435C23.2508 34.4065 23.0446 34.4085 23.0232 34.3494C22.961 34.164 23.0174 33.9886 22.9746 33.7283H22.9765ZM22.7801 33.4503V31.7449L21.8815 31.7488L21.7123 32.8549C21.6792 33.0659 21.6286 33.2453 21.5469 33.4562L22.7781 33.4523L22.7801 33.4503Z" fill="#F5F5F5"/>
<path d="M36.8818 33.7283L35.2207 33.7185L35.141 34.3553C35.1157 34.4105 34.9698 34.3809 34.9076 34.3592C34.8804 34.0753 34.857 33.8111 34.8648 33.5075C35.0924 33.4838 35.211 33.336 35.2596 33.123C35.3705 32.64 35.4172 32.1569 35.4989 31.664C35.5164 31.5556 35.5708 31.459 35.6914 31.459L36.8137 31.455C36.9382 31.455 36.9907 31.5418 36.9907 31.6581L36.9946 33.4109C37.0452 33.4759 37.1619 33.4759 37.2202 33.5312L37.1716 34.3671C37.0821 34.3967 36.9985 34.3888 36.911 34.3651L36.8818 33.7303V33.7283ZM36.6834 33.4464L36.6698 31.7409L35.7887 31.7468L35.6117 32.8825C35.5786 33.0915 35.5261 33.267 35.4483 33.4543L36.6834 33.4464Z" fill="#F5F5F5"/>
<path d="M20.8096 33.6771C20.2689 34.0201 20.5257 32.778 20.0083 32.6617C19.8332 32.6222 19.6523 32.6242 19.4637 32.6558L19.4364 33.6771C19.4112 33.7461 19.1914 33.748 19.1525 33.679L19.1369 32.6577C18.7888 32.6124 18.425 32.5789 18.3044 32.9495C18.2208 33.2019 18.1839 33.4562 18.071 33.6928C18.0166 33.7441 17.8532 33.7283 17.7773 33.7027C17.894 33.3399 17.9835 32.6084 18.3083 32.5C18.0691 32.3048 17.9855 31.806 17.9057 31.4767C18.4328 31.2263 18.1605 32.2792 18.6468 32.362C18.8082 32.3896 18.9735 32.3935 19.1389 32.362C19.1661 32.0702 19.1155 31.7942 19.1603 31.5043C19.1719 31.4294 19.4053 31.4235 19.4442 31.4886L19.4676 32.362C19.6426 32.3955 19.806 32.3916 19.9694 32.362C20.4245 32.2752 20.1833 31.2283 20.6929 31.4787C20.6326 31.7685 20.6229 32.0682 20.4615 32.291L20.302 32.5099C20.6249 32.6439 20.6832 33.2748 20.8135 33.679L20.8096 33.6771Z" fill="#F5F5F5"/>
<path d="M32.2133 33.1329C31.9818 33.7993 31.3555 33.8368 30.7584 33.6987L30.7273 34.5524C30.6942 34.6136 30.4375 34.6175 30.4375 34.5446L30.4336 31.5812C31.0443 31.3249 31.9779 31.25 32.2191 32.0189C32.3319 32.3797 32.3397 32.776 32.2152 33.1329H32.2133ZM31.906 32.1017C31.7445 31.595 31.1455 31.6285 30.7409 31.7804V33.3912C30.9646 33.4858 31.198 33.5134 31.4372 33.474C32.0188 33.3774 32.0499 32.5513 31.906 32.1017Z" fill="#F5F5F5"/>
<path d="M39.9588 33.1526C39.9141 32.6912 40.1922 32.3364 40.6046 32.3127L41.3748 32.2693C41.4779 32.2634 41.4137 31.9716 41.3651 31.8829C41.1764 31.5379 40.5073 31.7488 40.2506 31.7705C40.1942 31.7745 40.1514 31.5694 40.2058 31.5438C40.5209 31.3998 40.871 31.3821 41.2134 31.4353C41.5557 31.4886 41.7443 31.7685 41.7424 32.1017L41.7366 33.5982C41.262 33.8151 40.0386 33.9689 39.9588 33.1526ZM41.4234 33.4069L41.4117 32.5769C41.0169 32.5828 40.342 32.4665 40.2739 32.9594C40.2447 33.1782 40.3245 33.3971 40.5598 33.4621C40.8419 33.539 41.1394 33.5036 41.4234 33.4069Z" fill="#F5F5F5"/>
<path d="M43.701 32.78C43.2439 32.776 42.7888 32.6341 42.6371 33.0599C42.5632 33.263 42.536 33.472 42.4426 33.6731C42.4076 33.75 42.2092 33.7283 42.1411 33.6948C42.2286 33.3793 42.3162 32.8076 42.5943 32.6715C42.2812 32.5158 42.215 32.2338 42.2753 31.9322C42.3998 31.3151 43.2751 31.4511 43.8663 31.4531C43.95 31.4531 44.0239 31.5122 44.0239 31.6069L44.0181 33.679C43.95 33.7441 43.8119 33.7165 43.7244 33.6928L43.701 32.776V32.78ZM43.7088 32.5039L43.701 31.737C43.4093 31.733 43.137 31.7094 42.8608 31.7468C42.6332 31.7784 42.5379 31.9933 42.5671 32.1944C42.6332 32.6518 43.2867 32.4763 43.7088 32.502V32.5039Z" fill="#F5F5F5"/>
<path d="M28.0922 33.1664C28.0377 32.6853 28.345 32.3659 28.7866 32.3048C29.02 32.2733 29.267 32.3344 29.5159 32.2654C29.6132 32.2319 29.5451 31.9736 29.5004 31.8868C29.3253 31.5438 28.6582 31.737 28.3898 31.7725C28.3334 31.7804 28.2789 31.5753 28.3314 31.5497C28.6562 31.392 29.0394 31.3762 29.3973 31.4472C29.6735 31.5024 29.868 31.7468 29.868 32.0308V33.5982C29.3934 33.8072 28.1817 33.9629 28.0902 33.1625L28.0922 33.1664ZM29.5568 33.403L29.5432 32.573C29.1503 32.5907 28.4676 32.4547 28.4014 32.9692C28.3762 33.1625 28.4462 33.3793 28.6621 33.4483C28.9519 33.543 29.265 33.4996 29.5548 33.401L29.5568 33.403Z" fill="#F5F5F5"/>
<path d="M16.1824 33.3557C16.482 33.5706 16.8262 33.4779 17.1355 33.3734C17.2133 33.3478 17.3047 33.5666 17.2386 33.6061C16.7737 33.888 15.8498 33.8466 15.6573 33.1132C15.5678 32.7681 15.5678 32.4014 15.6709 32.0682C15.8071 31.6246 16.1766 31.3939 16.6181 31.4038C17.1413 31.4136 17.4856 31.7863 17.4914 32.3245C17.4914 32.4882 17.4584 32.6636 17.2542 32.6676L15.9199 32.6834C15.9082 32.9397 15.9743 33.2058 16.1824 33.3557ZM17.1861 32.4073C17.1861 32.1648 17.1511 31.9972 17.0207 31.8553C16.836 31.6522 16.5131 31.6226 16.2525 31.7646C16.058 31.8691 15.916 32.151 15.9374 32.4113L17.1861 32.4073Z" fill="#F5F5F5"/>
<path d="M24.5733 34.166C24.3477 34.8403 23.6261 34.582 23.6105 34.5347C23.593 34.4795 23.6163 34.4105 23.628 34.3691C23.6689 34.2114 24.1201 34.5426 24.2815 34.1187C24.3302 33.9905 24.3768 33.8683 24.4177 33.7362C24.373 33.6909 24.2699 33.6909 24.2329 33.6337L23.5308 31.4787C23.6086 31.4491 23.8011 31.4136 23.8342 31.4846L24.4838 33.474L25.1782 31.4827C25.2229 31.4215 25.4077 31.4432 25.4738 31.4787L24.5733 34.166Z" fill="#F5F5F5"/>
<path d="M33.6802 33.7658C33.2153 33.7776 32.8594 33.5371 32.7466 33.1013C32.661 32.776 32.6552 32.4251 32.7466 32.1017C32.8788 31.6345 33.2814 31.3782 33.7521 31.4097C34.1295 31.4353 34.431 31.6443 34.5535 32.0189C34.676 32.3935 34.6682 32.778 34.5554 33.1388C34.4329 33.5351 34.1061 33.7559 33.6802 33.7677V33.7658ZM34.1956 31.9716C34.0653 31.7074 33.7833 31.6463 33.5032 31.6995C32.9508 31.804 32.9022 32.705 33.1006 33.1625C33.2114 33.4188 33.4643 33.5193 33.7152 33.4996C34.4037 33.4464 34.4193 32.429 34.1956 31.9716Z" fill="#F5F5F5"/>
<path d="M27.6116 33.6672C27.565 33.7461 27.3568 33.7461 27.3218 33.6771L27.2927 32.6459H26.1354L26.1081 33.6731C26.0712 33.7401 25.8767 33.7441 25.8125 33.6731V31.5103C25.8144 31.4235 26.0887 31.4235 26.1043 31.4984C26.1607 31.7607 26.0945 32.0722 26.1354 32.362H27.2985L27.3121 31.5083C27.3121 31.4235 27.5727 31.4255 27.598 31.5004L27.6116 33.6672Z" fill="#F5F5F5"/>
<path d="M39.4761 33.6672C39.4197 33.7441 39.2213 33.7441 39.1882 33.6771L39.1591 32.6498H37.9979L37.9668 33.6771C37.9532 33.748 37.7198 33.7461 37.6809 33.6771C37.6614 32.9692 37.6614 32.2378 37.6789 31.5083C37.6789 31.4294 37.9376 31.4373 37.9746 31.4965L37.9998 32.364H39.1552L39.1824 31.5043C39.1844 31.4274 39.41 31.4373 39.4683 31.5024L39.4742 33.6692L39.4761 33.6672Z" fill="#F5F5F5"/>
</g>
<defs>
<clipPath id="clip0_6_272">
<rect width="45" height="45" fill="white"/>
</clipPath>
</defs>
</svg>
