<svg width="54" height="54" viewBox="0 0 54 54" fill="none" xmlns="http://www.w3.org/2000/svg">
<g clip-path="url(#clip0_67_753)">
<path d="M28.2884 0C28.139 0.0449527 28.9886 0.0828076 29.145 0.0970032C36.8216 0.716877 43.8657 4.63013 48.5034 10.862C53.7993 17.9787 55.3421 27.1112 52.6976 35.6333L51.3976 35.6191C53.7059 27.7618 52.2588 19.3604 47.5674 12.7689C43.3802 6.88722 36.9733 3.02129 29.8498 2.09858C16.2378 0.335962 3.61307 9.68375 1.11333 23.3423C-0.130705 30.1467 1.31172 37.1546 5.14886 42.8754C8.77593 48.2839 14.2586 52.1593 20.5488 53.664C20.6585 53.6901 20.6958 53.7894 20.7495 53.8699C20.7892 53.9267 20.7471 53.9527 20.6655 53.9267C9.1097 51.1325 0.700207 40.8809 0.0466805 28.8502C0.0443465 28.7981 0.0303423 28.7839 0 28.7886V26.0063C0 25.7768 0.0700207 25.5379 0.0886929 25.2847C1.15301 11.4819 11.9619 0.927445 25.4876 0H28.2884Z" fill="#072E4B"/>
<path d="M13.7917 10.1191C8.07097 12.8967 3.98876 18.2934 2.7914 24.4259C1.44934 31.3013 3.61531 38.2216 8.5121 43.0339C10.7364 45.22 13.4369 46.8525 16.3684 47.7847C16.5225 47.8344 16.6438 47.8959 16.6485 48.045C11.2569 46.4006 6.82226 42.5749 4.2455 37.5994C-0.0281009 29.3446 1.64073 19.1806 8.11765 12.7476C14.6553 6.25316 24.6612 4.77918 32.779 9.29101C38.2966 12.3573 42.2294 17.8888 43.3031 24.2508C43.9496 28.0789 43.5365 32.03 42.1314 35.6285H41.1464C44.0756 27.8375 41.9587 19.1191 36.0186 13.5308C30.0598 7.92587 21.1812 6.53234 13.794 10.1215L13.7917 10.1191Z" fill="#072E4B"/>
<path d="M26.9293 35.6216C30.2669 30.0593 28.4371 22.8952 22.9965 19.6397C17.5558 16.3842 10.4931 18.2509 7.32815 23.8156C4.16321 29.3802 6.07478 36.5372 11.6904 39.7099C11.7628 39.7501 11.7418 39.7714 11.8515 39.8944C5.90673 36.7052 3.78277 29.2288 7.01773 23.3731C10.269 17.4843 17.6445 15.4473 23.3909 18.8566C29.1163 22.2541 31.0162 29.8132 27.4638 35.6145L26.9316 35.6216H26.9293Z" fill="#072E4B"/>
<path d="M32.8511 35.638C36.6135 27.8611 33.2152 18.5914 25.6156 15.052C17.9296 11.4723 8.84328 15.026 5.49628 22.8738C2.15863 30.7003 5.81371 39.8801 13.7307 43.1025C13.7844 43.1238 13.7307 43.1876 13.8894 43.2917C5.54063 40.0055 1.67082 30.3761 5.14851 22.1829C8.63788 13.9589 18.191 10.2563 26.2154 14.0607C34.2398 17.8651 37.6008 27.5938 33.5513 35.6569C33.3529 35.5977 33.1405 35.6238 32.8487 35.638H32.8511Z" fill="#072E4B"/>
<path d="M24.4592 35.6357H8.0323L8.00195 34.2729C9.14796 33.9772 10.9778 33.5797 12.1168 33.8707C12.4086 33.9559 12.614 34.1452 12.6887 34.4764L15.954 34.1333C16.122 32.5813 16.0917 31.0718 15.9026 29.5221C17.3917 29.295 18.8528 29.2548 20.3279 29.4086C20.6314 29.6428 20.8204 29.9291 21.0468 30.2319C21.6933 31.209 22.1555 32.2548 22.5313 33.4117C23.0354 32.2311 23.3902 31.0553 23.7076 29.8131C24.3518 29.8889 24.961 30.0332 25.5538 30.2556C25.6705 30.7075 25.7055 31.1215 25.7265 31.5829C25.8409 32.5505 25.5562 35.1862 24.4592 35.6404V35.6357ZM19.1399 32.4322C19.3406 32.2027 19.4247 31.9188 19.3827 31.6278L18.0196 31.6231C17.9822 31.933 18.0849 32.2548 18.3137 32.4819C18.5424 32.709 18.9112 32.6948 19.1399 32.4322ZM25.3041 31.8881C25.1197 31.8691 24.9656 31.8691 24.7929 31.8952C24.7673 32.075 24.8326 32.6404 25.0637 32.6333C25.2504 32.6286 25.3484 32.0371 25.3041 31.8881Z" fill="#072E4B"/>
<path d="M23.0526 27.8021C24.6351 28.1783 24.7285 28.1239 25.305 29.5292L23.279 28.978L22.5975 31.2824C22.3127 30.2769 21.7992 29.3447 21.022 28.5687C19.2715 28.3652 17.521 28.3865 15.7518 28.6207C15.4064 26.8486 14.5964 24.6436 12.7246 24.1183C11.7816 23.8344 10.9134 24.0426 9.90039 24.3171C11.0021 23.6475 12.2041 23.1625 13.4621 22.7982C14.7202 22.4338 15.9012 22.3581 17.1499 22.5474C18.9541 22.8218 20.5716 23.8037 21.9183 25.0647C21.3441 24.7264 20.8633 24.2556 20.2331 23.9456C18.4079 23.0489 15.6328 22.6893 13.7049 23.6475C15.3527 24.3833 16.3143 25.6562 16.9351 27.3597C18.7674 27.1467 21.2531 27.3739 23.0526 27.8021Z" fill="#072E4B"/>
<path d="M12.509 28.4504L7.54688 29.5695L7.64257 27.3928C8.55984 26.7706 10.224 25.668 11.2603 25.4409C11.5381 25.3794 11.7808 25.4859 11.9348 25.7201C12.3596 26.3802 12.474 27.5489 12.509 28.4527V28.4504Z" fill="#072E4B"/>
<path d="M32.3245 52.4219L32.2755 48.2318L30.9217 51.6198C30.8401 51.8256 30.5413 51.7665 30.3662 51.7783C30.1725 51.7736 29.9531 51.7901 29.8738 51.5938L28.527 48.2957L28.4967 52.4077C28.2446 52.4739 27.9855 52.481 27.7101 52.4029L27.7031 47.1435C27.7031 47.0039 27.7475 46.8595 27.8222 46.7957C27.9225 46.7081 28.0976 46.6868 28.2236 46.7105C28.5947 46.6348 28.7908 46.8075 28.9122 47.1222L30.4036 50.9763L32.0024 46.9116C32.1214 46.6111 32.8263 46.6726 32.9734 46.7838C33.0597 46.8477 33.1064 46.9778 33.1064 47.1316L33.1017 52.4077C32.8497 52.4857 32.6069 52.4668 32.3245 52.4219Z" fill="#072E4B"/>
<path d="M52.9906 51.0472C52.5541 52.3485 51.2938 52.7294 50.0754 52.4668C48.2315 52.0693 48.1172 49.6111 48.5606 48.2602C48.9201 47.1671 49.87 46.5543 50.9787 46.6206C51.9543 46.6797 52.7409 47.2547 53.028 48.2271C53.2964 49.1379 53.294 50.1387 52.9906 51.0449V51.0472ZM52.2227 50.6687C52.4328 49.9163 52.4164 49.1166 52.211 48.3927C52.036 47.7728 51.5365 47.4155 50.9227 47.3848C50.2155 47.3493 49.6319 47.7349 49.3869 48.4305C49.1185 49.1924 49.1325 50.0678 49.3775 50.8461C49.5573 51.4211 50.0357 51.7215 50.5959 51.7736C51.3451 51.8446 52.0056 51.4518 52.2227 50.6663V50.6687Z" fill="#072E4B"/>
<path d="M35.175 49.7697C35.1283 50.2594 35.1587 50.7018 35.1563 51.1632C35.1563 51.4779 35.3851 51.6766 35.6838 51.679L38.1089 51.6932C38.1625 51.9558 38.1625 52.1806 38.1042 52.4479L35.4784 52.4361C34.8156 52.4337 34.3301 51.8966 34.3301 51.2271V47.9668C34.3347 47.25 34.8949 46.7129 35.5858 46.7129H38.0598C38.1415 46.9589 38.1369 47.2003 38.0739 47.4605L35.6348 47.4747C34.9393 47.4795 35.1937 48.4448 35.1727 49.0291L37.7774 49.0457C37.8755 49.2681 37.8731 49.5331 37.7774 49.7578L35.1773 49.7697H35.175Z" fill="#072E4B"/>
<path d="M44.3872 50.198L44.3709 52.4125C44.1048 52.474 43.8434 52.474 43.5586 52.4101V47.0537C43.5563 46.8691 43.701 46.7011 43.8807 46.7011C44.6206 46.6988 45.3465 46.6704 46.0794 46.7106C47.1203 46.7674 47.7762 47.6759 47.6362 48.6885C47.5195 49.5332 46.9079 50.1838 46.0397 50.1885L44.3849 50.2003L44.3872 50.198ZM46.7912 48.5205C46.8123 47.9385 46.4201 47.5221 45.8693 47.489C45.3745 47.4582 44.8914 47.4748 44.3942 47.4866V49.4409C44.9077 49.4574 45.4095 49.4645 45.9207 49.4362C46.4318 49.4078 46.7726 49.0576 46.7912 48.5205Z" fill="#072E4B"/>
<path d="M41.1138 52.3982C40.8477 52.4952 40.5839 52.455 40.2688 52.4266L40.2548 47.4794L38.6164 47.4558C38.565 47.2097 38.5673 46.9826 38.6117 46.7247L42.7943 46.72C42.8526 46.9755 42.8503 47.2145 42.7943 47.4558L41.1161 47.4723L41.1114 52.4029L41.1138 52.3982Z" fill="#072E4B"/>
<path d="M27.629 44.3469H26.1282C25.9882 44.6214 25.9812 44.9171 25.8248 45.149C25.7548 45.2554 25.5144 45.2058 25.4023 45.1584L26.6417 41.645C26.6837 41.5244 27.0922 41.5267 27.1342 41.645L28.3596 45.1513C28.2592 45.2105 28.0071 45.2483 27.9418 45.1561C27.7807 44.9289 27.7784 44.6403 27.6313 44.3446L27.629 44.3469ZM27.51 43.9447L26.8774 42.0236L26.2403 43.9636C26.6954 43.9731 27.0852 44.0086 27.51 43.9447Z" fill="#072E4B"/>
<path d="M38.5807 44.7845C38.5807 44.9076 38.786 44.8863 38.8351 44.9549C38.8584 45.279 38.8164 45.6481 38.7884 45.9746C38.7347 46.0361 38.5596 46.0243 38.4873 45.9746C38.4173 45.7475 38.4756 45.4683 38.4289 45.2009L36.5781 45.1938C36.4567 45.1938 36.375 45.0921 36.375 44.962V42.5416C36.445 42.4541 36.6714 42.447 36.7414 42.5369L36.7508 44.8697L38.1815 44.8744L38.1909 42.5109C38.3122 42.4612 38.4359 42.4754 38.562 42.5156L38.5783 44.7845H38.5807Z" fill="#072E4B"/>
<path d="M50.1036 45.1276C50.0103 45.2459 49.8189 45.227 49.7302 45.1536L49.6928 43.0669L48.3718 45.0637C48.2574 45.2364 48.0193 45.2625 47.877 45.0992V42.5369C47.9143 42.4541 48.2247 42.4376 48.2271 42.5322L48.2807 44.6142L49.6531 42.5487C49.7185 42.4517 50.0686 42.4446 50.0709 42.5819L50.1036 45.13V45.1276Z" fill="#072E4B"/>
<path d="M41.5491 45.1584C41.4464 45.2341 41.2994 45.2034 41.185 45.1821L41.1593 43.067L39.8406 45.0425C39.7799 45.1324 39.7122 45.1963 39.6282 45.1987C39.5535 45.1987 39.3458 45.2129 39.3458 45.0875L39.3318 42.5299C39.4298 42.4589 39.5862 42.4565 39.6936 42.5133L39.7309 44.6143L41.0963 42.5654C41.185 42.4329 41.4184 42.4684 41.5444 42.5606L41.5491 45.1608V45.1584Z" fill="#072E4B"/>
<path d="M47.1182 44.7846C47.1182 44.91 47.3049 44.8793 47.3726 44.9384C47.3959 45.2744 47.3726 45.6056 47.3329 45.9463C47.3236 46.022 47.0412 46.0433 47.0342 45.9676L46.9595 45.201L45.1506 45.1963C45.0176 45.1963 44.9219 45.1159 44.9219 44.9644L44.9359 42.537C44.9429 42.4471 45.279 42.4471 45.2813 42.537L45.3047 44.8698H46.7307L46.7471 42.5275C46.8031 42.4471 46.9922 42.4731 47.1019 42.4968L47.1205 44.7823L47.1182 44.7846Z" fill="#072E4B"/>
<path d="M42.1143 44.4961C42.077 43.9637 42.3921 43.545 42.8682 43.5237L43.8252 43.4787C43.9419 43.4148 43.8672 43.1073 43.7972 42.9866C43.5638 42.5868 42.7725 42.8399 42.4738 42.8636C42.4061 42.8683 42.3454 42.6246 42.4107 42.5962C42.8145 42.4188 43.2673 42.3833 43.6968 42.4803C44.0376 42.556 44.2546 42.8588 44.2546 43.2114L44.2476 45.0663C43.6501 45.3147 42.189 45.5016 42.1167 44.4961H42.1143ZM43.8508 44.7942C43.9185 44.4464 43.8508 44.1388 43.8672 43.8383C43.4074 43.8289 42.5858 43.7035 42.4994 44.2666C42.4598 44.5197 42.5181 44.7824 42.7982 44.8723C43.0993 44.9693 43.6104 44.9858 43.8508 44.7942Z" fill="#072E4B"/>
<path d="M52.4473 44.0631C51.9081 44.0844 51.3573 43.8999 51.1775 44.3967C51.0842 44.6546 51.0492 44.9196 50.9301 45.1609C50.8788 45.239 50.6827 45.2035 50.5684 45.1822C50.6827 44.8226 50.7808 44.1033 51.1145 43.9424C50.7528 43.765 50.6571 43.4101 50.7387 43.041C50.8064 42.7382 51.1192 42.4898 51.481 42.4874L52.606 42.4827C52.669 42.4827 52.725 42.4945 52.7623 42.5158C52.802 42.5394 52.837 42.6199 52.837 42.698V45.168C52.6947 45.2106 52.578 45.2177 52.4706 45.168L52.4496 44.0607L52.4473 44.0631ZM52.4566 43.7342C52.4659 43.4054 52.4776 43.1286 52.4473 42.8163H51.537C51.2429 42.8163 51.0725 43.0529 51.0795 43.2965C51.0888 43.5828 51.2966 43.7461 51.593 43.7437L52.4566 43.7342Z" fill="#072E4B"/>
<path d="M34.6482 45.2579C34.1394 45.2602 33.7379 45.0236 33.5815 44.5623C33.4391 44.1435 33.4345 43.6845 33.5512 43.261C33.7052 42.7098 34.1744 42.3975 34.7345 42.4259C35.1967 42.4495 35.5724 42.7074 35.7172 43.164C35.8525 43.5946 35.8549 44.0725 35.7172 44.5031C35.5678 44.9787 35.1687 45.2508 34.6482 45.2555V45.2579ZM35.3064 43.1451C35.1687 42.8352 34.8652 42.724 34.5408 42.7571C33.7822 42.8375 33.7146 43.9968 33.9946 44.5741C34.1464 44.8864 34.4731 44.9763 34.8092 44.9195C35.5141 44.8012 35.5398 43.6585 35.3064 43.1427V43.1451Z" fill="#072E4B"/>
<path d="M29.5041 44.8626C29.8495 45.0069 30.2206 44.8933 30.5287 44.7632C30.6127 44.7916 30.6968 44.9667 30.6618 45.0519C30.314 45.2577 29.8449 45.305 29.4457 45.2104C28.5892 45.0093 28.5425 43.8689 28.7549 43.2159C28.9136 42.7238 29.3454 42.4162 29.8612 42.4304C30.1296 42.4375 30.433 42.4635 30.6104 42.6481C30.6478 42.7119 30.5614 42.8539 30.5147 42.8894C30.4237 42.958 29.7071 42.4919 29.28 43.0243C28.9182 43.4738 28.8832 44.6023 29.5041 44.8626Z" fill="#072E4B"/>
<path d="M32.134 44.9219C32.7758 45.0094 33.0372 44.4723 33.0652 45.052C32.4864 45.3856 31.4267 45.3879 31.1653 44.5741C30.9319 43.8454 31.044 42.7381 31.8772 42.492C32.2577 42.3808 32.6778 42.4163 33.0115 42.6245C33.0676 42.6766 32.9835 42.8209 32.9485 42.8659C32.8458 43.0007 32.0593 42.4447 31.6368 43.0954C31.3474 43.5425 31.2447 44.8012 32.134 44.9242V44.9219Z" fill="#072E4B"/>
<path d="M17.6875 37.6348L16.6792 39.97C16.6302 40.0836 16.2521 40.0883 16.2008 39.97L15.1855 37.6183L15.1458 40.4148C15.1411 40.5023 14.8144 40.5023 14.798 40.4148L14.791 36.9605C14.8727 36.7996 15.2391 36.7594 15.3115 36.9345L16.4412 39.6553L17.5755 36.9345C17.6479 36.7618 18.019 36.8067 18.0983 36.9558L18.1077 40.429C17.9816 40.481 17.8416 40.481 17.7319 40.4219L17.6922 37.6324L17.6875 37.6348Z" fill="#072E4B"/>
<path d="M27.5726 40.474H25.5654C25.5187 40.7389 25.5537 40.9613 25.4977 41.2098C25.479 41.2949 25.2199 41.2949 25.2059 41.1956C25.1616 40.8596 25.1499 40.5544 25.1592 40.2042C25.4253 40.1829 25.57 40.0031 25.626 39.7523C25.7591 39.1727 25.8174 38.593 25.9131 37.9968C25.9341 37.8643 25.9995 37.7508 26.1512 37.7508H27.5213C27.666 37.7484 27.7103 37.8572 27.7103 37.985V40.093C27.7664 40.1711 27.9087 40.164 27.9787 40.2279C27.9741 40.5544 27.9694 40.888 27.9157 41.2121C27.9017 41.2878 27.6543 41.2902 27.6286 41.2192C27.554 40.9968 27.6216 40.7863 27.5703 40.474H27.5726ZM27.3369 40.1404V38.0938L26.2586 38.0986L26.0555 39.4258C26.0158 39.679 25.9551 39.8943 25.8571 40.1475L27.3346 40.1427L27.3369 40.1404Z" fill="#072E4B"/>
<path d="M44.2581 40.4739L42.2649 40.4621L42.1692 41.2263C42.1388 41.2925 41.9638 41.2571 41.8891 41.231C41.8564 40.8903 41.8284 40.5733 41.8378 40.209C42.1108 40.1806 42.2532 40.0031 42.3116 39.7476C42.4446 39.1679 42.5006 38.5883 42.5986 37.9968C42.6197 37.8667 42.685 37.7508 42.8297 37.7508L44.1765 37.746C44.3258 37.746 44.3888 37.8501 44.3888 37.9897L44.3935 40.093C44.4542 40.1711 44.5942 40.1711 44.6643 40.2373L44.6059 41.2405C44.4985 41.276 44.3982 41.2665 44.2932 41.2381L44.2581 40.4763V40.4739ZM44.0201 40.1356L44.0037 38.0891L42.9464 38.0962L42.734 39.459C42.6943 39.7097 42.6313 39.9203 42.538 40.1451L44.0201 40.1356Z" fill="#072E4B"/>
<path d="M24.9727 40.4125C24.3239 40.8242 24.632 39.3337 24.0111 39.1941C23.801 39.1468 23.584 39.1491 23.3576 39.187L23.3249 40.4125C23.2946 40.4953 23.0308 40.4977 22.9841 40.4149L22.9655 39.1894C22.5477 39.1349 22.1112 39.0947 21.9665 39.5395C21.8661 39.8423 21.8218 40.1476 21.6864 40.4315C21.6211 40.493 21.425 40.4741 21.334 40.4433C21.474 40.008 21.5814 39.1302 21.9712 39.0001C21.6841 38.7658 21.5837 38.1673 21.488 37.7722C22.1205 37.4717 21.7938 38.7351 22.3773 38.8345C22.571 38.8676 22.7694 38.8723 22.9678 38.8345C23.0005 38.4843 22.9398 38.1531 22.9935 37.8053C23.0075 37.7154 23.2876 37.7083 23.3342 37.7864L23.3623 38.8345C23.5723 38.8747 23.7684 38.87 23.9644 38.8345C24.5106 38.7304 24.2212 37.4741 24.8327 37.7745C24.7603 38.1223 24.7487 38.4819 24.5549 38.7493L24.3635 39.0119C24.751 39.1728 24.821 39.9299 24.9774 40.4149L24.9727 40.4125Z" fill="#072E4B"/>
<path d="M38.6571 39.7594C38.3794 40.5591 37.6278 40.604 36.9113 40.4384L36.8739 41.4628C36.8342 41.5362 36.5262 41.5409 36.5262 41.4534L36.5215 37.8974C37.2544 37.5898 38.3747 37.4999 38.6641 38.4226C38.7995 38.8556 38.8088 39.3311 38.6595 39.7594H38.6571ZM38.2883 38.522C38.0946 37.9139 37.3757 37.9542 36.8903 38.1363V40.0693C37.1587 40.1829 37.4388 40.216 37.7258 40.1687C38.4237 40.0527 38.4611 39.0614 38.2883 38.522Z" fill="#072E4B"/>
<path d="M47.951 39.783C47.8973 39.2293 48.231 38.8035 48.7259 38.7751L49.6501 38.723C49.7738 38.7159 49.6968 38.3658 49.6385 38.2593C49.4121 37.8453 48.6092 38.0984 48.3011 38.1245C48.2334 38.1292 48.182 37.8831 48.2474 37.8524C48.6255 37.6797 49.0456 37.6584 49.4564 37.7222C49.8672 37.7861 50.0936 38.1221 50.0913 38.5219L50.0843 40.3177C49.5148 40.5779 48.0467 40.7625 47.951 39.783ZM49.7085 40.0882L49.6945 39.0921C49.2207 39.0992 48.4108 38.9596 48.3291 39.5511C48.2941 39.8137 48.3898 40.0763 48.6722 40.1544C49.0106 40.2467 49.3677 40.2041 49.7085 40.0882Z" fill="#072E4B"/>
<path d="M52.4402 39.3359C51.8917 39.3312 51.3456 39.1609 51.1635 39.6719C51.0748 39.9156 51.0422 40.1664 50.9301 40.4077C50.8881 40.5 50.6501 40.474 50.5684 40.4337C50.6734 40.0552 50.7784 39.3691 51.1122 39.2058C50.7364 39.0189 50.6571 38.6806 50.7294 38.3186C50.8788 37.5781 51.9291 37.7413 52.6386 37.7437C52.739 37.7437 52.8277 37.8146 52.8277 37.9282L52.8207 40.4148C52.739 40.4929 52.5733 40.4598 52.4683 40.4314L52.4402 39.3312V39.3359ZM52.4496 39.0047L52.4402 38.0844C52.0901 38.0796 51.7634 38.0512 51.4319 38.0962C51.1589 38.1341 51.0445 38.3919 51.0795 38.6333C51.1589 39.1822 51.9431 38.9716 52.4496 39.0023V39.0047Z" fill="#072E4B"/>
<path d="M33.7106 39.7996C33.6453 39.2224 34.014 38.8391 34.5439 38.7657C34.824 38.7279 35.1204 38.8012 35.4191 38.7184C35.5358 38.6782 35.4541 38.3683 35.4005 38.2641C35.1904 37.8525 34.3898 38.0843 34.0677 38.1269C34 38.1364 33.9347 37.8903 33.9977 37.8596C34.3875 37.6703 34.8473 37.6514 35.2768 37.7365C35.6082 37.8028 35.8416 38.0962 35.8416 38.4369V40.3178C35.2721 40.5686 33.818 40.7555 33.7083 39.7949L33.7106 39.7996ZM35.4681 40.0836L35.4518 39.0875C34.9803 39.1088 34.1611 38.9455 34.0817 39.563C34.0514 39.7949 34.1354 40.0552 34.3945 40.138C34.7423 40.2515 35.118 40.1995 35.4658 40.0812L35.4681 40.0836Z" fill="#072E4B"/>
<path d="M19.4197 40.0267C19.7792 40.2846 20.1923 40.1734 20.5634 40.048C20.6567 40.0173 20.7664 40.2799 20.6871 40.3272C20.1293 40.6655 19.0206 40.6158 18.7895 39.7357C18.6822 39.3217 18.6822 38.8816 18.8059 38.4818C18.9692 37.9494 19.4127 37.6726 19.9425 37.6844C20.5704 37.6963 20.9835 38.1434 20.9905 38.7893C20.9905 38.9857 20.9508 39.1963 20.7058 39.201L19.1046 39.2199C19.0906 39.5275 19.17 39.8469 19.4197 40.0267ZM20.6241 38.8887C20.6241 38.5977 20.5821 38.3966 20.4257 38.2262C20.2039 37.9826 19.8165 37.9471 19.5037 38.1174C19.2703 38.2428 19.1 38.5811 19.1256 38.8934L20.6241 38.8887Z" fill="#072E4B"/>
<path d="M29.4893 40.9991C29.2186 41.8082 28.3526 41.4983 28.334 41.4415C28.313 41.3753 28.341 41.2925 28.355 41.2428C28.404 41.0535 28.9455 41.451 29.1392 40.9423C29.1976 40.7885 29.2536 40.6418 29.3026 40.4833C29.2489 40.4289 29.1252 40.4289 29.0809 40.3603L28.2383 37.7743C28.3316 37.7388 28.5627 37.6962 28.6024 37.7814L29.382 40.1686L30.2152 37.779C30.2689 37.7057 30.4906 37.7317 30.57 37.7743L29.4893 40.9991Z" fill="#072E4B"/>
<path d="M40.4168 40.5189C39.859 40.5331 39.4318 40.2444 39.2965 39.7216C39.1938 39.3312 39.1868 38.9101 39.2965 38.522C39.4552 37.9613 39.9383 37.6537 40.5032 37.6916C40.956 37.7224 41.3177 37.9731 41.4648 38.4227C41.6118 38.8722 41.6025 39.3336 41.4671 39.7665C41.3201 40.2421 40.928 40.5071 40.4168 40.5213V40.5189ZM41.0353 38.3659C40.8789 38.0489 40.5405 37.9755 40.2044 38.0394C39.5415 38.1648 39.4832 39.246 39.7213 39.7949C39.8543 40.1025 40.1577 40.2232 40.4588 40.1995C41.2851 40.1356 41.3037 38.9148 41.0353 38.3659Z" fill="#072E4B"/>
<path d="M33.1336 40.4007C33.0776 40.4953 32.8278 40.4953 32.7858 40.4125L32.7508 39.1751H31.3621L31.3294 40.4078C31.285 40.4882 31.0516 40.493 30.9746 40.4078V37.8124C30.9769 37.7083 31.306 37.7083 31.3247 37.7982C31.3924 38.1128 31.313 38.4867 31.3621 38.8345H32.7578L32.7741 37.81C32.7741 37.7083 33.0869 37.7106 33.1172 37.8005L33.1336 40.4007Z" fill="#072E4B"/>
<path d="M47.3713 40.4005C47.3036 40.4928 47.0656 40.4928 47.0259 40.4124L46.9909 39.1797H45.5975L45.5601 40.4124C45.5438 40.4975 45.2637 40.4952 45.217 40.4124C45.1937 39.563 45.1937 38.6852 45.2147 37.8098C45.2147 37.7152 45.5251 37.7247 45.5695 37.7956L45.5998 38.8366H46.9862L47.0189 37.8051C47.0212 37.7128 47.292 37.7247 47.362 37.8027L47.369 40.4029L47.3713 40.4005Z" fill="#072E4B"/>
</g>
<defs>
<clipPath id="clip0_67_753">
<rect width="54" height="54" fill="white"/>
</clipPath>
</defs>
</svg>
