<svg width="459" height="366" viewBox="0 0 459 366" fill="none" xmlns="http://www.w3.org/2000/svg">
<g clip-path="url(#clip0_52_782)">
<path d="M138.314 77.023C131.434 53.7894 112.757 56.3359 99.9878 67.157C68.532 96.1185 27.5739 156.907 53.7873 244.438C75.7408 318.593 167.089 366.015 167.089 366.015H60.6012C60.6012 366.015 5.61696 304.59 0.701717 232.345C-5.5237 141.005 31.1777 83.3984 73.7742 45.8448C113.749 10.5175 151.758 0.0152283 151.758 0.0152283L229.509 253.928L307.26 0.0152283C307.26 0.0152283 345.269 10.5175 385.244 45.8448C427.841 83.3984 464.542 141.005 458.317 232.345C453.401 304.59 398.417 366.015 398.417 366.015H291.929C291.929 366.015 383.27 318.593 405.231 244.438C431.444 156.917 390.486 96.1285 359.031 67.157C346.251 56.3359 327.575 53.7894 320.704 77.023C297.112 151.178 229.519 363.647 229.519 363.647C229.519 363.647 161.926 151.107 138.334 77.023H138.314Z" fill="white"/>
</g>
<defs>
<clipPath id="clip0_52_782">
<rect width="459" height="366" fill="white"/>
</clipPath>
</defs>
</svg>
