<svg width="22" height="22" viewBox="0 0 22 22" fill="none" xmlns="http://www.w3.org/2000/svg">
<path d="M7.90254 15.3025C5.8376 15.3025 4.08739 14.5852 2.65192 13.1506C1.21731 11.7168 0.5 9.96706 0.5 7.90125C0.5 5.83545 1.21731 4.08524 2.65192 2.65063C4.08653 1.21601 5.83674 0.49914 7.90254 0.500001C9.96835 0.500862 11.7181 1.21817 13.1519 2.65192C14.5856 4.08567 15.3029 5.83545 15.3038 7.90125C15.3038 8.79853 15.1449 9.66696 14.8272 10.5065C14.5094 11.3461 14.0918 12.0643 13.5742 12.661L21.2067 20.2909C21.3273 20.4115 21.3918 20.56 21.4005 20.7365C21.4082 20.9113 21.3436 21.0676 21.2067 21.2054C21.0689 21.3432 20.9165 21.4121 20.7495 21.4121C20.5824 21.4121 20.43 21.3432 20.2922 21.2054L12.661 13.5743C12.0152 14.1245 11.2725 14.5503 10.4329 14.8517C9.59333 15.1531 8.74944 15.3038 7.90125 15.3038M7.90125 14.0121C9.61486 14.0121 11.062 13.4223 12.2425 12.2425C13.4223 11.0628 14.0121 9.61572 14.0121 7.90125C14.0121 6.18678 13.4227 4.74011 12.2438 3.56125C11.065 2.38239 9.61831 1.79253 7.90383 1.79167C6.18936 1.79167 4.74226 2.38153 3.56254 3.56125C2.38282 4.74097 1.79253 6.18764 1.79167 7.90125C1.79081 9.61486 2.38067 11.0615 3.56125 12.2413C4.74183 13.421 6.1885 14.0108 7.90125 14.0108" fill="#072E4B"/>
<path d="M7.90254 15.3025C5.8376 15.3025 4.08739 14.5852 2.65192 13.1506C1.21731 11.7168 0.5 9.96706 0.5 7.90125C0.5 5.83545 1.21731 4.08524 2.65192 2.65063C4.08653 1.21601 5.83674 0.49914 7.90254 0.500001C9.96835 0.500862 11.7181 1.21817 13.1519 2.65192C14.5856 4.08567 15.3029 5.83545 15.3038 7.90125C15.3038 8.79853 15.1449 9.66696 14.8272 10.5065C14.5094 11.3461 14.0918 12.0643 13.5742 12.661L21.2067 20.2909C21.3273 20.4115 21.3918 20.56 21.4005 20.7365C21.4082 20.9113 21.3436 21.0676 21.2067 21.2054C21.0689 21.3432 20.9165 21.4121 20.7495 21.4121C20.5824 21.4121 20.43 21.3432 20.2922 21.2054L12.661 13.5743C12.0152 14.1245 11.2725 14.5503 10.4329 14.8517C9.59333 15.1531 8.74944 15.3038 7.90125 15.3038M7.90125 14.0121C9.61486 14.0121 11.062 13.4223 12.2425 12.2425C13.4223 11.0628 14.0121 9.61572 14.0121 7.90125C14.0121 6.18678 13.4227 4.74011 12.2438 3.56125C11.065 2.38239 9.61831 1.79253 7.90383 1.79167C6.18936 1.79167 4.74226 2.38153 3.56254 3.56125C2.38282 4.74097 1.79253 6.18764 1.79167 7.90125C1.79081 9.61486 2.38067 11.0615 3.56125 12.2413C4.74183 13.421 6.1885 14.0108 7.90125 14.0108" stroke="#072E4B"/>
</svg>
