<svg width="52" height="52" viewBox="0 0 52 52" fill="none" xmlns="http://www.w3.org/2000/svg">
<rect width="52" height="52" rx="26" fill="#F5F5F5"/>
<path d="M35.71 15.6999C32.1481 17.1531 16.8752 23.3843 12.6552 25.0827C9.82518 26.1705 11.4819 27.1905 11.4819 27.1905C11.4819 27.1905 13.8977 28.0063 15.9688 28.6182C18.0395 29.2301 19.1439 28.5503 19.1439 28.5503L28.8766 22.0912C32.3279 19.7795 31.4997 21.6832 30.6711 22.4992C28.8766 24.2671 25.9084 27.0544 23.4234 29.2983C22.319 30.2501 22.8711 31.0659 23.3545 31.4739C25.1491 32.9698 30.0502 36.0294 30.3261 36.2333C31.7842 37.2501 34.6525 38.7138 35.0888 35.6214L36.8144 24.9469C37.3668 21.3435 37.9188 18.0119 37.9877 17.0601C38.195 14.7481 35.71 15.6999 35.71 15.6999Z" fill="#192031"/>
</svg>
